<svg id="b21a9597-531b-4e57-ae05-5753e82e1db9" data-name="Layer 1" xmlns="http://www.w3.org/2000/svg" width="560" height="276.4" viewBox="0 0 560 276.4"><path d="M35,57.2H0v-35L9.8,0H17V22.2H35Zm58.8,0h-35v-35L68.6,0h7.2V22.2h18Z" fill="#fff"/><path d="M466.2,219.2h35v35l-9.8,22.2h-7.2V254.2h-18Zm58.8,0h35v35l-9.8,22.2H543V254.2H525Z" fill="#fff"/><path d="M58.7,80.7H94.1V96.6H79v5.3H92.5v15.4H79v18H58.7Z" fill="#fff"/><path d="M126.8,119.8c-1-3.1-2.5-4.3-4.9-4.3h-1.5v19.8H100.1V80.7H129c11,0,18.4,5.1,18.4,14.6,0,7.1-3.7,11.8-10.6,13.9,5.8,1.4,9.4,4.6,10.9,9.7l4.8,16.4H131.3Zm-4-16.3a4.5,4.5,0,0,0,4.9-4.9c0-2.9-1.8-4.7-4.9-4.7h-2.3v9.6Z" fill="#fff"/><path d="M153.3,108c0-18.4,11.8-28.8,29.9-28.8s29.9,10.4,29.9,28.8-11.7,28.8-29.9,28.8S153.3,126.4,153.3,108Zm38.6,0c0-7.8-3.1-11.7-8.6-11.7s-8.6,3.9-8.6,11.7,3.1,11.6,8.6,11.6S191.9,115.7,191.9,108Z" fill="#fff"/><path d="M219.9,80.7H243l11,20,4.2,8.4-.3-8.4v-20h17.4v54.6H252.5l-11.5-20-4.1-8.4.3,8.4v20.1H219.8V80.7Z" fill="#fff"/><path d="M292,97.6H280.3V80.7H324V97.6H312.3v37.7H292Z" fill="#fff"/><path d="M328.5,80.7h20.3v37.7h15.9v16.9H328.5V80.7Z" fill="#fff"/><path d="M370.9,80.7h20.3v54.6H370.9Z" fill="#fff"/><path d="M399.8,80.7h23.1l11,20,4.2,8.4-.3-8.4v-20h17.4v54.6H432.4L421,115.2l-4.1-8.4.3,8.4v20.1H399.8V80.7Z" fill="#fff"/><path d="M463.8,80.7h38.1V96.6H484v5.1h16.9v12.5H484v5.2h18.5v15.9H463.7V80.7Z" fill="#fff"/><path d="M58.1,194.3v-16c6.5,2.9,12.2,4.3,18,4.3,3.4,0,5-.7,5-2.4s-1.2-2.4-3.7-2.9l-2.1-.4c-12.2-2.1-18.4-7.7-18.4-17.4,0-11.9,8.4-18.6,23.3-18.6a67.6,67.6,0,0,1,18.4,2.6v15.9a41.2,41.2,0,0,0-16.2-3.3c-3.1,0-4.6.7-4.6,2.2s1.2,2.3,3.7,2.7l2.1.4c12.4,2.2,18.4,8,18.4,17.4,0,12.6-8.6,19.1-23.8,19.1A59.8,59.8,0,0,1,58.1,194.3Z" fill="#fff"/><path d="M115.5,159H103.8V142.1h43.7V159H135.8v37.7H115.5Z" fill="#fff"/><path d="M150.1,169.3c0-18.4,11.8-28.8,29.9-28.8s29.9,10.4,29.9,28.8-11.7,28.8-29.9,28.8S150.1,187.7,150.1,169.3Zm38.5,0c0-7.8-3.1-11.7-8.6-11.7s-8.6,3.9-8.6,11.7,3.1,11.6,8.6,11.6S188.6,177,188.6,169.3Z" fill="#fff"/><path d="M243.3,181.1c-1-3.1-2.5-4.3-4.9-4.3h-1.5v19.8H216.6V142h28.8c11,0,18.4,5.1,18.4,14.6,0,7.1-3.7,11.8-10.6,13.9,5.8,1.4,9.4,4.6,10.9,9.7l4.8,16.4H247.7Zm-4.1-16.2a4.5,4.5,0,0,0,4.9-4.9c0-2.9-1.8-4.7-4.9-4.7h-2.3v9.6Z" fill="#fff"/><path d="M274.3,142h20.3v54.6H274.3Z" fill="#fff"/><path d="M303.2,142h38.1v15.9H323.4V163h16.9v12.5H323.4v5.2H342v15.9H303.2Z" fill="#fff"/><path d="M348.7,194.3v-16c6.5,2.9,12.2,4.3,18,4.3,3.4,0,5-.7,5-2.4s-1.2-2.4-3.7-2.9l-2.1-.4c-12.2-2.1-18.4-7.7-18.4-17.4,0-11.9,8.4-18.6,23.3-18.6a67.6,67.6,0,0,1,18.4,2.6v15.9a41.2,41.2,0,0,0-16.2-3.3c-3.1,0-4.6.7-4.6,2.2s1.2,2.3,3.7,2.7l2.1.4c12.4,2.2,18.4,8,18.4,17.4,0,12.6-8.6,19.1-23.8,19.1A59.8,59.8,0,0,1,348.7,194.3Z" fill="#fff"/><polyline points="99.7 24.1 512.5 24.1 512.5 212.2" fill="none" stroke="#fff" stroke-miterlimit="10" stroke-width="2.68"/><polyline points="453.1 253.5 43.8 253.5 43.8 62" fill="none" stroke="#fff" stroke-miterlimit="10" stroke-width="2.68"/></svg>