<svg id="ada91961-ba63-4239-8434-d1df64c31ace" data-name="Layer 1" xmlns="http://www.w3.org/2000/svg" width="372" height="182.6" viewBox="0 0 372 182.6"><path d="M189.3,113.7c-2.9-4.9-5.7-10-8.6-15h-.9v15H168.3V78h15l9.4,16.8V78.1h11.5v35.6Z" transform="translate(-21.2 -25.1)"/><path d="M287.3,78l2.6-.2h12.3l9.6,17.2V78.1h11.5v35.6h-15l-8.6-15h-1v15.1H287.3Z" transform="translate(-21.2 -25.1)"/><path d="M163.1,95.9c-.2,12.1-7.7,19.3-20.1,19.2s-19.3-7.9-19.1-20.2,7.8-19.1,19.9-19S163.2,83.6,163.1,95.9ZM149,95.4a15.5,15.5,0,0,0-.4-3.1c-.6-2.8-2-5-5.2-4.9s-4.5,2.1-4.9,4.7a17.2,17.2,0,0,0-.1,6.4c.5,2.7,1.9,4.9,5.2,4.9s4.3-2.2,5-4.7A19.8,19.8,0,0,0,149,95.4Z" transform="translate(-21.2 -25.1)"/><path d="M140.3,156.1c-12.1-.1-19.5-7.7-19.4-19.9s7.6-19.3,19.6-19.3,19.6,7.5,19.6,19.7S152.5,156.1,140.3,156.1Zm5.7-20.2a20.7,20.7,0,0,0-.5-3c-.6-2.7-2.2-4.6-5.1-4.5s-4.5,2-4.9,4.7a16.7,16.7,0,0,0-.2,5.9c.4,3.5,2.5,5.4,5.3,5.4s4.6-2.1,5.2-5.6C145.9,138,145.9,137.1,146,135.9Z" transform="translate(-21.2 -25.1)"/><path d="M108.9,113.7c-2.7-4.1-1.5-9.8-7-13.4-.2,5.1-.4,9.3-.6,13.6H87.9V78.2c7.8,0,15.2-.3,22.6.1,3.9.2,7.4,2.3,8.4,6.6s-.4,9.1-5.6,11.8c7.5,3.5,6.8,10.8,9.5,17Z" transform="translate(-21.2 -25.1)"/><path d="M164.9,118.9h19.6c6,.1,10,2.4,11.3,6.4s0,8.3-5.1,12.4c7,3.4,6.6,10.6,8.9,16.9H185.9c-2.7-3.7-1.5-9.6-5.7-12.7l-1.3.2-.6,12.7H164.9v-36Z" transform="translate(-21.2 -25.1)"/><path d="M61,143.3c10.9,2.9,10.9,2.9,14.7,1.2-.8-3.1-3.6-2.5-5.6-3.1-6.7-2-9.9-5.4-10.1-11.3s2.8-10.5,8.7-12.2,12.2-.9,18.5.8v10c-4.4,0-8.7-3.2-13-.7l-.3,1.4,5.8,1.8c8.2,2.3,11.7,8.3,9.5,16.2-1.3,4.3-4.3,6.6-8.4,7.8-6.6,1.8-13.1.8-19.8-1.5Z" transform="translate(-21.2 -25.1)"/><path d="M279.3,119.2v9.5c-4.4,0-8.8-3.3-13.4.6,1.9.6,3.7,1.3,5.6,1.8,8.4,2.3,11.9,8.2,9.7,16.2-1.2,4.3-4.1,6.7-8.2,7.8-6.7,1.9-13.2.9-19.9-1.4V143.3c2.7.7,5.2,1.5,7.7,2s4.9,1.3,7.8-1.8l-7.3-2.4c-6.6-2-9.6-6.1-9.3-12.3a11.2,11.2,0,0,1,8.1-10.8C265.4,116.2,273.3,116.7,279.3,119.2Z" transform="translate(-21.2 -25.1)"/><path d="M353.5,100.1H342.9c-.1,4.6,3,3.1,4.9,3.3s4.2,0,6.7,0v10.4H329.3V78.3h24.6v9.9l-11,.8v1.5c2.9,2.7,7,.3,10.7,1.8Z" transform="translate(-21.2 -25.1)"/><path d="M223.3,118.9h24.6v10.3l-11,.8v1.5c2.9,2.8,7.3.1,10.8,1.9v7.5H236.9c.5,2.3,1.6,2.6,11.6,4.1v9.8H223.3Z" transform="translate(-21.2 -25.1)"/><path d="M360.7,165V41.7H88.1c2.8-2.2,263.4-2.9,273.7-1.5V165Z" transform="translate(-21.2 -25.1)"/><path d="M51.5,66.4V191.9H321.8a10.9,10.9,0,0,0-.1,1.2c-.1.1-.2.4-.3.4l-267.3.4-4-.3V66.4Z" transform="translate(-21.2 -25.1)"/><path d="M61.1,113.8V78.3H84.3v9.9l-9.8.8c1.5,2.2,1.5,2.2,8.7,3.3v9.5l-8.5.5v11.5Z" transform="translate(-21.2 -25.1)"/><path d="M369.8,170.1h23c.4,13,2.2,26-6.8,37.6h-4.5V193.3H369.8Z" transform="translate(-21.2 -25.1)"/><path d="M346.9,207.7h-4.3V193.3H330.8V170.1h23.1C354.1,183.1,356.1,196.1,346.9,207.7Z" transform="translate(-21.2 -25.1)"/><path d="M44.7,62.9h-23c-.7-13-2.1-26,6.8-37.5-.1,0,.2-.2.5-.2h3.8V39.7H44.7Z" transform="translate(-21.2 -25.1)"/><path d="M71.9,39.9H83.6V62.6H60.7c-.6-12.6-2.1-25.5,6.9-37.3l1.7-.2,2.6.2Z" transform="translate(-21.2 -25.1)"/><path d="M228.8,113.8H215V89.3l-7.6-.5V78.1h28.4V88.9l-7,.3Z" transform="translate(-21.2 -25.1)"/><path d="M111.6,130.4v24.3H98V130.3l-7.6-.5V119.1H119v10.6Z" transform="translate(-21.2 -25.1)"/><path d="M253.5,102.7h10.2v11H240.3V78.1h13.2Z" transform="translate(-21.2 -25.1)"/><path d="M281.2,113.9H268.3V78.2h12.9Z" transform="translate(-21.2 -25.1)"/><path d="M204.3,119h12.9v35.9H204.3Z" transform="translate(-21.2 -25.1)"/></svg>